<svg xmlns="http://www.w3.org/2000/svg" xmlns:xlink="http://www.w3.org/1999/xlink" width="33" height="49" version="1.1" viewBox="0 0 33 49"><title>arrow</title><desc>Created with Sketch.</desc><g id="Page-1" fill="none" fill-rule="evenodd" stroke="none" stroke-width="1"><g id="arrow" transform="translate(1.000000, 1.000000)"><polygon id="Path-2" fill="#FFF" points="11.599 .698 28.723 12.899 23.883 14.711 30.588 40.646 25.253 45.054 13.112 46.518 7.927 22.176 .656 21.476 6.465 3.156"/><polygon id="Path-3" stroke="#00C0B4" stroke-linecap="round" stroke-linejoin="round" stroke-width="2" points="12.218 .248 29.219 12.995 24.069 14.185 30.369 40.251 17.464 42.264 11.49 17.411 5.901 18.247"/><polyline id="Path-4" stroke="#00C0B4" stroke-linejoin="round" stroke-width="2" points="12.064 .201 7.658 2.566 .029 23.256 8.348 21.803 12.943 46.269 24.776 44.972 30.791 40.136"/><path id="Line" stroke="#00C0B4" stroke-linecap="square" d="M25.5,41.5 L20.5,45.5"/><path id="Line" stroke="#00C0B4" stroke-linecap="square" d="M6.5,5.5 L9.5,4.5"/><path id="Line" stroke="#00C0B4" stroke-linecap="square" d="M4.5,10.5 L8.5,8.5"/><path id="Line" stroke="#00C0B4" stroke-linecap="square" d="M7.5,12.5 L2.5,15.5"/><path id="Line" stroke="#00C0B4" stroke-linecap="square" d="M5.5,17.5 L1.5,20.5"/><path id="Line" stroke="#00C0B4" stroke-linecap="square" d="M3.5,22.5 L11.5,17.5"/><path id="Line" stroke="#00C0B4" stroke-linecap="square" d="M9.5,24.5 L12.5,22.5"/><path id="Line" stroke="#00C0B4" stroke-linecap="square" d="M9.5,30.5 L13.5,27.5"/><path id="Line" stroke="#00C0B4" stroke-linecap="square" d="M11.5,35.5 L15.5,32.5"/><path id="Line" stroke="#00C0B4" stroke-linecap="square" d="M11.5,41.5 L15.5,38.5"/><path id="Line" stroke="#00C0B4" stroke-linecap="square" d="M15.5,45.5 L18.5,42.5"/></g></g></svg>