<svg xmlns="http://www.w3.org/2000/svg" xmlns:svg="http://www.w3.org/2000/svg" id="svg8" width="256" height="256" version="1.1" viewBox="0 0 67.733 67.733"><metadata id="metadata5"/><g id="layer1" transform="translate(0,-229.26663)"><g id="g4716" transform="matrix(0.56120892,0,0,0.56120892,-27.410609,187.32405)"><g id="g4706" transform="matrix(1.0798647,0,0,1,-4.2555272,0)"><path style="opacity:1;fill:#000;fill-opacity:1;stroke:none;stroke-width:18.89763832;stroke-linecap:round;stroke-linejoin:round;stroke-miterlimit:4;stroke-dasharray:none;stroke-dashoffset:0;stroke-opacity:.47783257" id="rect4570" d="m 220.2832,283.08314 c -10.46929,0 -18.89648,8.42719 -18.89648,18.89649 v 155.66881 h 51.1914 l 20.56641,-38.93946 c 5.10023,-9.66146 18.63786,-10.45064 24.82617,-1.44726 l 34.26563,49.85742 58.82617,-115.43164 c 2.45353,-4.81025 7.37202,-7.86334 12.77148,-7.92773 4.94619,-0.0585 9.58242,2.40313 12.30469,6.5332 l 51.90235,78.7207 44.95507,-57.51172 c 5.37817,-6.8781 15.56448,-7.49421 21.73243,-1.31445 l 57.58593,57.76367 V 301.97963 c 0,-10.4693 -8.42719,-18.89649 -18.89648,-18.89649 z m 185.33594,104.04577 -58.57422,114.94336 c -5.00345,9.81467 -18.68205,10.70978 -24.92187,1.63085 l -34.49414,-50.18945 -13.44336,25.44531 c -2.51544,4.76196 -7.45824,7.74222 -12.84375,7.74414 h -59.95508 v 64.36568 c 0,10.46929 8.42719,18.89648 18.89648,18.89648 h 353.13477 c 10.46929,0 18.89648,-8.42719 18.89648,-18.89648 v -81.95357 l -9.69922,-9.73242 -56.85546,-57.0332 -47.28125,60.48828 c -6.11946,7.8226 -18.10815,7.33794 -23.57618,-0.95312 z" transform="scale(0.26458333)"/></g><g style="stroke-width:8;stroke-miterlimit:4;stroke-dasharray:none" id="g4699" transform="matrix(1.0798647,0,0,1,-4.255474,-3.4745039)"><path style="fill:none;fill-rule:evenodd;stroke:#000;stroke-width:8;stroke-linecap:round;stroke-linejoin:miter;stroke-miterlimit:4;stroke-dasharray:none;stroke-opacity:1" id="path4574" d="M 53.55061,162.56343 H 156.44939"/><g style="stroke-width:8;stroke-miterlimit:4;stroke-dasharray:none" id="g4692" transform="translate(-7.921371,-10.958051)"><path id="path4574-6-75" d="m 112.92137,205.67512 -10e-6,-31.83404" style="fill:none;fill-rule:evenodd;stroke:#000;stroke-width:8;stroke-linecap:round;stroke-linejoin:miter;stroke-miterlimit:4;stroke-dasharray:none;stroke-opacity:1"/><path id="path4574-6-75-1" d="M 79.330162,205.67512 96.533194,173.84108" style="fill:none;fill-rule:evenodd;stroke:#000;stroke-width:8;stroke-linecap:round;stroke-linejoin:miter;stroke-miterlimit:4;stroke-dasharray:none;stroke-opacity:1"/><path id="path4574-6-75-4" d="M 146.51258,205.67512 129.30953,173.84108" style="fill:none;fill-rule:evenodd;stroke:#000;stroke-width:8;stroke-linecap:round;stroke-linejoin:miter;stroke-miterlimit:4;stroke-dasharray:none;stroke-opacity:1"/></g></g></g></g></svg>